<svg xmlns="http://www.w3.org/2000/svg" xmlns:xlink="http://www.w3.org/1999/xlink" width="755" zoomAndPan="magnify" viewBox="0 0 567 850.499975" height="1133" preserveAspectRatio="xMidYMid meet" version="1.0"><defs><clipPath id="52a7502bc3"><path d="M 0.167969 0 L 566.832031 0 L 566.832031 850 L 0.167969 850 Z M 0.167969 0 " clip-rule="nonzero"/></clipPath><clipPath id="7773cdb960"><path d="M 46.074219 201.601562 L 520.546875 201.601562 L 520.546875 676.070312 L 46.074219 676.070312 Z M 46.074219 201.601562 " clip-rule="nonzero"/></clipPath></defs><g clip-path="url(#52a7502bc3)"><path fill="#ffffff" d="M 0.167969 0 L 566.832031 0 L 566.832031 850 L 0.167969 850 Z M 0.167969 0 " fill-opacity="1" fill-rule="nonzero"/><path fill="#ffffff" d="M 0.167969 0 L 566.832031 0 L 566.832031 850 L 0.167969 850 Z M 0.167969 0 " fill-opacity="1" fill-rule="nonzero"/></g><g clip-path="url(#7773cdb960)"><path fill="#25ce7b" d="M 283.460938 201.601562 C 152.304688 201.601562 46.074219 307.832031 46.074219 438.988281 C 46.074219 570.144531 152.304688 676.375 283.460938 676.375 C 414.617188 676.375 520.847656 570.144531 520.847656 438.988281 C 520.847656 307.832031 414.617188 201.601562 283.460938 201.601562 Z M 283.460938 628.898438 C 178.773438 628.898438 93.550781 543.675781 93.550781 438.988281 C 93.550781 334.300781 178.773438 249.078125 283.460938 249.078125 C 388.148438 249.078125 473.371094 334.300781 473.371094 438.988281 C 473.371094 543.675781 388.148438 628.898438 283.460938 628.898438 Z M 283.460938 628.898438 " fill-opacity="1" fill-rule="nonzero"/></g></svg>