<svg xmlns="http://www.w3.org/2000/svg" xmlns:xlink="http://www.w3.org/1999/xlink" width="755" zoomAndPan="magnify" viewBox="0 0 567 850.499975" height="1133" preserveAspectRatio="xMidYMid meet" version="1.0"><defs><clipPath id="c6ad8fc669"><path d="M 0.167969 0 L 566.832031 0 L 566.832031 850 L 0.167969 850 Z M 0.167969 0 " clip-rule="nonzero"/></clipPath><clipPath id="726bd9f68a"><path d="M 67.597656 161.628906 L 540.980469 161.628906 L 540.980469 575.234375 L 67.597656 575.234375 Z M 67.597656 161.628906 " clip-rule="nonzero"/></clipPath><clipPath id="42eff83444"><path d="M 303.941406 161.628906 L 540.289062 575.234375 L 67.597656 575.234375 Z M 303.941406 161.628906 " clip-rule="nonzero"/></clipPath><clipPath id="d734fcd67b"><path d="M 150.738281 262.050781 L 457.597656 262.050781 L 457.597656 530.15625 L 150.738281 530.15625 Z M 150.738281 262.050781 " clip-rule="nonzero"/></clipPath><clipPath id="07245572b7"><path d="M 303.941406 262.050781 L 457.148438 530.15625 L 150.738281 530.15625 Z M 303.941406 262.050781 " clip-rule="nonzero"/></clipPath></defs><g clip-path="url(#c6ad8fc669)"><path fill="#ffffff" d="M 0.167969 0 L 566.832031 0 L 566.832031 850 L 0.167969 850 Z M 0.167969 0 " fill-opacity="1" fill-rule="nonzero"/><path fill="#ffffff" d="M 0.167969 0 L 566.832031 0 L 566.832031 850 L 0.167969 850 Z M 0.167969 0 " fill-opacity="1" fill-rule="nonzero"/></g><g clip-path="url(#726bd9f68a)"><g clip-path="url(#42eff83444)"><path fill="#25cd7b" d="M 67.597656 161.628906 L 540.980469 161.628906 L 540.980469 575.234375 L 67.597656 575.234375 Z M 67.597656 161.628906 " fill-opacity="1" fill-rule="nonzero"/></g></g><g clip-path="url(#d734fcd67b)"><g clip-path="url(#07245572b7)"><path fill="#ffffff" d="M 150.738281 262.050781 L 457.597656 262.050781 L 457.597656 530.15625 L 150.738281 530.15625 Z M 150.738281 262.050781 " fill-opacity="1" fill-rule="nonzero"/></g></g></svg>