<svg xmlns="http://www.w3.org/2000/svg" xmlns:xlink="http://www.w3.org/1999/xlink" width="755" zoomAndPan="magnify" viewBox="0 0 567 850.499975" height="1133" preserveAspectRatio="xMidYMid meet" version="1.0"><defs><clipPath id="f3ddc44e70"><path d="M 0.167969 0 L 566.832031 0 L 566.832031 850 L 0.167969 850 Z M 0.167969 0 " clip-rule="nonzero"/></clipPath><clipPath id="f749efb60e"><path d="M 65.429688 139.246094 L 519.664062 139.246094 L 519.664062 744.140625 L 65.429688 744.140625 Z M 65.429688 139.246094 " clip-rule="nonzero"/></clipPath><clipPath id="31ec4f19b0"><path d="M 140.589844 237.039062 L 447.910156 237.039062 L 447.910156 646.296875 L 140.589844 646.296875 Z M 140.589844 237.039062 " clip-rule="nonzero"/></clipPath></defs><g clip-path="url(#f3ddc44e70)"><path fill="#ffffff" d="M 0.167969 0 L 566.832031 0 L 566.832031 850 L 0.167969 850 Z M 0.167969 0 " fill-opacity="1" fill-rule="nonzero"/><path fill="#ffffff" d="M 0.167969 0 L 566.832031 0 L 566.832031 850 L 0.167969 850 Z M 0.167969 0 " fill-opacity="1" fill-rule="nonzero"/></g><path fill="#25ce7b" d="M 504.261719 154.375 L 504.261719 731.058594 L 78.835938 731.058594 L 78.835938 154.375 Z M 504.261719 154.375 " fill-opacity="1" fill-rule="nonzero"/><g clip-path="url(#f749efb60e)"><path fill="#25ce7b" d="M 65.601562 731.058594 L 65.601562 154.375 C 65.601562 144.917969 71.273438 139.246094 78.835938 139.246094 L 504.261719 139.246094 C 513.714844 139.246094 519.386719 144.917969 519.386719 154.375 L 519.386719 731.058594 C 519.386719 738.621094 513.714844 744.292969 504.261719 744.292969 L 78.835938 744.292969 C 71.273438 744.292969 65.601562 738.621094 65.601562 731.058594 Z M 93.964844 167.609375 L 93.964844 715.933594 L 491.023438 715.933594 L 491.023438 167.609375 Z M 93.964844 167.609375 " fill-opacity="1" fill-rule="nonzero"/></g><path fill="#ffffff" d="M 437.492188 247.277344 L 437.492188 637.539062 L 149.589844 637.539062 L 149.589844 247.277344 Z M 437.492188 247.277344 " fill-opacity="1" fill-rule="nonzero"/><g clip-path="url(#31ec4f19b0)"><path fill="#ffffff" d="M 140.632812 637.539062 L 140.632812 247.277344 C 140.632812 240.878906 144.472656 237.039062 149.589844 237.039062 L 437.492188 237.039062 C 443.886719 237.039062 447.726562 240.878906 447.726562 247.277344 L 447.726562 637.539062 C 447.726562 642.660156 443.886719 646.496094 437.492188 646.496094 L 149.589844 646.496094 C 144.472656 646.496094 140.632812 642.660156 140.632812 637.539062 Z M 159.828125 256.230469 L 159.828125 627.304688 L 428.535156 627.304688 L 428.535156 256.230469 Z M 159.828125 256.230469 " fill-opacity="1" fill-rule="nonzero"/></g></svg>