<svg xmlns="http://www.w3.org/2000/svg" xmlns:xlink="http://www.w3.org/1999/xlink" width="755" zoomAndPan="magnify" viewBox="0 0 567 850.499975" height="1133" preserveAspectRatio="xMidYMid meet" version="1.0"><defs><clipPath id="6211009820"><path d="M 0.167969 0 L 566.832031 0 L 566.832031 850 L 0.167969 850 Z M 0.167969 0 " clip-rule="nonzero"/></clipPath><clipPath id="74a4d4e7f2"><path d="M 57 128.101562 L 535 128.101562 L 535 728.5 L 57 728.5 Z M 57 128.101562 " clip-rule="nonzero"/></clipPath><clipPath id="5be1bc8a32"><path d="M 57 128 L 534.707031 128 L 534.707031 728.265625 L 57 728.265625 Z M 57 128 " clip-rule="nonzero"/></clipPath></defs><g clip-path="url(#6211009820)"><path fill="#ffffff" d="M 0.167969 0 L 566.832031 0 L 566.832031 850 L 0.167969 850 Z M 0.167969 0 " fill-opacity="1" fill-rule="nonzero"/><path fill="#ffffff" d="M 0.167969 0 L 566.832031 0 L 566.832031 850 L 0.167969 850 Z M 0.167969 0 " fill-opacity="1" fill-rule="nonzero"/></g><g clip-path="url(#74a4d4e7f2)"><path fill="#25ce7b" d="M 343.507812 728.265625 L 248.027344 728.265625 C 240.484375 728.265625 234.386719 722.15625 234.386719 714.625 L 234.386719 223.582031 L 70.703125 223.582031 C 63.160156 223.582031 57.066406 217.472656 57.066406 209.945312 L 57.066406 141.742188 C 57.066406 134.214844 63.160156 128.101562 70.703125 128.101562 L 520.828125 128.101562 C 528.371094 128.101562 534.46875 134.214844 534.46875 141.742188 L 534.46875 209.945312 C 534.46875 217.472656 528.371094 223.582031 520.828125 223.582031 L 357.144531 223.582031 L 357.144531 714.625 C 357.144531 722.15625 351.050781 728.265625 343.507812 728.265625 Z M 343.507812 728.265625 " fill-opacity="1" fill-rule="nonzero"/></g><g clip-path="url(#5be1bc8a32)"><path fill="#25cd7b" d="M 248.027344 128.101562 L 343.507812 128.101562 C 351.050781 128.101562 357.144531 134.214844 357.144531 141.742188 L 357.144531 632.785156 L 520.828125 632.785156 C 528.371094 632.785156 534.46875 638.894531 534.46875 646.425781 L 534.46875 714.625 C 534.46875 722.15625 528.371094 728.265625 520.828125 728.265625 L 70.703125 728.265625 C 63.160156 728.265625 57.066406 722.15625 57.066406 714.625 L 57.066406 646.425781 C 57.066406 638.894531 63.160156 632.785156 70.703125 632.785156 L 234.386719 632.785156 L 234.386719 141.742188 C 234.386719 134.214844 240.484375 128.101562 248.027344 128.101562 Z M 248.027344 128.101562 " fill-opacity="1" fill-rule="nonzero"/></g></svg>