<svg xmlns="http://www.w3.org/2000/svg" xmlns:xlink="http://www.w3.org/1999/xlink" width="755" zoomAndPan="magnify" viewBox="0 0 567 850.499975" height="1133" preserveAspectRatio="xMidYMid meet" version="1.0"><defs><clipPath id="5e5b25c9dd"><path d="M 0.167969 0 L 566.832031 0 L 566.832031 850 L 0.167969 850 Z M 0.167969 0 " clip-rule="nonzero"/></clipPath><clipPath id="097bc43e13"><path d="M 77.648438 85.609375 L 510 85.609375 L 510 718.984375 L 77.648438 718.984375 Z M 77.648438 85.609375 " clip-rule="nonzero"/></clipPath></defs><g clip-path="url(#5e5b25c9dd)"><path fill="#ffffff" d="M 0.167969 0 L 566.832031 0 L 566.832031 850 L 0.167969 850 Z M 0.167969 0 " fill-opacity="1" fill-rule="nonzero"/><path fill="#ffffff" d="M 0.167969 0 L 566.832031 0 L 566.832031 850 L 0.167969 850 Z M 0.167969 0 " fill-opacity="1" fill-rule="nonzero"/></g><g clip-path="url(#097bc43e13)"><path fill="#25ce7b" d="M 193.066406 85.609375 L 92.265625 85.609375 C 84.316406 85.609375 77.863281 92.058594 77.863281 100.007812 L 77.863281 704.832031 C 77.863281 712.78125 84.316406 719.230469 92.265625 719.230469 L 495.480469 719.230469 C 503.429688 719.230469 509.878906 712.78125 509.878906 704.832031 L 509.878906 618.429688 C 509.878906 610.480469 503.429688 604.027344 495.480469 604.027344 L 207.46875 604.027344 L 207.46875 100.007812 C 207.46875 92.058594 201.015625 85.609375 193.066406 85.609375 Z M 193.066406 85.609375 " fill-opacity="1" fill-rule="nonzero"/></g></svg>