<svg xmlns="http://www.w3.org/2000/svg" xmlns:xlink="http://www.w3.org/1999/xlink" width="755" zoomAndPan="magnify" viewBox="0 0 567 850.499975" height="1133" preserveAspectRatio="xMidYMid meet" version="1.0"><defs><clipPath id="3b3b98a0d9"><path d="M 0.167969 0 L 566.832031 0 L 566.832031 850 L 0.167969 850 Z M 0.167969 0 " clip-rule="nonzero"/></clipPath><clipPath id="e6f11ff342"><path d="M 67.027344 124.164062 L 519 124.164062 L 519 726 L 67.027344 726 Z M 67.027344 124.164062 " clip-rule="nonzero"/></clipPath></defs><g clip-path="url(#3b3b98a0d9)"><path fill="#ffffff" d="M 0.167969 0 L 566.832031 0 L 566.832031 850 L 0.167969 850 Z M 0.167969 0 " fill-opacity="1" fill-rule="nonzero"/><path fill="#ffffff" d="M 0.167969 0 L 566.832031 0 L 566.832031 850 L 0.167969 850 Z M 0.167969 0 " fill-opacity="1" fill-rule="nonzero"/></g><path fill="#25ce7b" d="M 503.699219 139.203125 L 503.699219 712.5625 L 80.730469 712.5625 L 80.730469 139.203125 Z M 503.699219 139.203125 " fill-opacity="1" fill-rule="nonzero"/><g clip-path="url(#e6f11ff342)"><path fill="#25ce7b" d="M 67.570312 712.5625 L 67.570312 139.203125 C 67.570312 129.804688 73.210938 124.164062 80.730469 124.164062 L 503.699219 124.164062 C 513.097656 124.164062 518.738281 129.804688 518.738281 139.203125 L 518.738281 712.5625 C 518.738281 720.082031 513.097656 725.722656 503.699219 725.722656 L 80.730469 725.722656 C 73.210938 725.722656 67.570312 720.082031 67.570312 712.5625 Z M 95.769531 152.363281 L 95.769531 697.523438 L 490.539062 697.523438 L 490.539062 152.363281 Z M 95.769531 152.363281 " fill-opacity="1" fill-rule="nonzero"/></g></svg>