<svg xmlns="http://www.w3.org/2000/svg" xmlns:xlink="http://www.w3.org/1999/xlink" width="755" zoomAndPan="magnify" viewBox="0 0 567 850.499975" height="1133" preserveAspectRatio="xMidYMid meet" version="1.0"><defs><clipPath id="144a952528"><path d="M 0.167969 0 L 566.832031 0 L 566.832031 850 L 0.167969 850 Z M 0.167969 0 " clip-rule="nonzero"/></clipPath><clipPath id="a0484f843d"><path d="M 33.042969 123.855469 L 533.75 123.855469 L 533.75 752.734375 L 33.042969 752.734375 Z M 33.042969 123.855469 " clip-rule="nonzero"/></clipPath></defs><g clip-path="url(#144a952528)"><path fill="#ffffff" d="M 0.167969 0 L 566.832031 0 L 566.832031 850 L 0.167969 850 Z M 0.167969 0 " fill-opacity="1" fill-rule="nonzero"/><path fill="#ffffff" d="M 0.167969 0 L 566.832031 0 L 566.832031 850 L 0.167969 850 Z M 0.167969 0 " fill-opacity="1" fill-rule="nonzero"/></g><g clip-path="url(#a0484f843d)"><path fill="#25cd7b" d="M 333.496094 752.851562 L 233.425781 752.851562 C 225.519531 752.851562 219.132812 746.445312 219.132812 738.554688 L 219.132812 223.921875 L 47.585938 223.921875 C 39.679688 223.921875 33.292969 217.515625 33.292969 209.625 L 33.292969 138.148438 C 33.292969 130.257812 39.679688 123.855469 47.585938 123.855469 L 519.335938 123.855469 C 527.238281 123.855469 533.628906 130.257812 533.628906 138.148438 L 533.628906 209.625 C 533.628906 217.515625 527.238281 223.921875 519.335938 223.921875 L 347.789062 223.921875 L 347.789062 738.554688 C 347.789062 746.445312 341.398438 752.851562 333.496094 752.851562 Z M 333.496094 752.851562 " fill-opacity="1" fill-rule="nonzero"/></g></svg>