<svg xmlns="http://www.w3.org/2000/svg" xmlns:xlink="http://www.w3.org/1999/xlink" width="755" zoomAndPan="magnify" viewBox="0 0 567 850.499975" height="1133" preserveAspectRatio="xMidYMid meet" version="1.0"><defs><clipPath id="e0bc6a963f"><path d="M 0.167969 0 L 566.832031 0 L 566.832031 850 L 0.167969 850 Z M 0.167969 0 " clip-rule="nonzero"/></clipPath><clipPath id="3336e36b1c"><path d="M 37.679688 209.882812 L 529.96875 209.882812 L 529.96875 640.007812 L 37.679688 640.007812 Z M 37.679688 209.882812 " clip-rule="nonzero"/></clipPath><clipPath id="e5bb1555b1"><path d="M 283.464844 209.882812 L 529.25 640.007812 L 37.679688 640.007812 Z M 283.464844 209.882812 " clip-rule="nonzero"/></clipPath></defs><g clip-path="url(#e0bc6a963f)"><path fill="#ffffff" d="M 0.167969 0 L 566.832031 0 L 566.832031 850 L 0.167969 850 Z M 0.167969 0 " fill-opacity="1" fill-rule="nonzero"/><path fill="#ffffff" d="M 0.167969 0 L 566.832031 0 L 566.832031 850 L 0.167969 850 Z M 0.167969 0 " fill-opacity="1" fill-rule="nonzero"/></g><g clip-path="url(#3336e36b1c)"><g clip-path="url(#e5bb1555b1)"><path fill="#25cd7b" d="M 37.679688 209.882812 L 529.96875 209.882812 L 529.96875 640.007812 L 37.679688 640.007812 Z M 37.679688 209.882812 " fill-opacity="1" fill-rule="nonzero"/></g></g></svg>