<svg xmlns="http://www.w3.org/2000/svg" xmlns:xlink="http://www.w3.org/1999/xlink" width="755" zoomAndPan="magnify" viewBox="0 0 567 850.499975" height="1133" preserveAspectRatio="xMidYMid meet" version="1.0"><defs><clipPath id="fd30cdd0e2"><path d="M 0.167969 0 L 566.832031 0 L 566.832031 850 L 0.167969 850 Z M 0.167969 0 " clip-rule="nonzero"/></clipPath><clipPath id="f161925c05"><path d="M 45.496094 182.761719 L 470.496094 182.761719 L 470.496094 666.855469 L 45.496094 666.855469 Z M 45.496094 182.761719 " clip-rule="nonzero"/></clipPath><clipPath id="bd970996f3"><path d="M 412.410156 182.761719 L 539.832031 182.761719 L 539.832031 666.976562 L 412.410156 666.976562 Z M 412.410156 182.761719 " clip-rule="nonzero"/></clipPath></defs><g clip-path="url(#fd30cdd0e2)"><path fill="#ffffff" d="M 0.167969 0 L 566.832031 0 L 566.832031 850 L 0.167969 850 Z M 0.167969 0 " fill-opacity="1" fill-rule="nonzero"/><path fill="#ffffff" d="M 0.167969 0 L 566.832031 0 L 566.832031 850 L 0.167969 850 Z M 0.167969 0 " fill-opacity="1" fill-rule="nonzero"/></g><g clip-path="url(#f161925c05)"><path fill="#25ce7b" d="M 158.871094 44.71875 L 59.851562 44.71875 C 52.042969 44.71875 45.707031 51.058594 45.707031 58.867188 L 45.707031 652.976562 C 45.707031 660.785156 52.042969 667.125 59.851562 667.125 L 455.925781 667.125 C 463.734375 667.125 470.070312 660.785156 470.070312 652.976562 L 470.070312 568.105469 C 470.070312 560.296875 463.734375 553.960938 455.925781 553.960938 L 173.015625 553.960938 L 173.015625 58.867188 C 173.015625 51.058594 166.679688 44.71875 158.871094 44.71875 Z M 158.871094 44.71875 " fill-opacity="1" fill-rule="nonzero"/></g><g clip-path="url(#bd970996f3)"><path fill="#25ce7b" d="M 526.386719 41.402344 L 426.839844 41.402344 C 418.992188 41.402344 412.621094 47.773438 412.621094 55.625 L 412.621094 652.902344 C 412.621094 660.75 418.992188 667.121094 426.839844 667.121094 L 825.027344 667.121094 C 832.875 667.121094 839.246094 660.75 839.246094 652.902344 L 839.246094 567.574219 C 839.246094 559.726562 832.875 553.355469 825.027344 553.355469 L 540.609375 553.355469 L 540.609375 55.625 C 540.609375 47.773438 534.238281 41.402344 526.386719 41.402344 Z M 526.386719 41.402344 " fill-opacity="1" fill-rule="nonzero"/></g></svg>