<?xml version="1.0" encoding="UTF-8" standalone="no"?>
<!-- Created with Inkscape (http://www.inkscape.org/) -->

<svg
   width="700.68262"
   height="656.99963"
   viewBox="0 0 185.38894 173.83115"
   version="1.1"
   id="svg7263"
   inkscape:version="1.2.2 (732a01da63, 2022-12-09)"
   sodipodi:docname="logo.svg"
   xmlns:inkscape="http://www.inkscape.org/namespaces/inkscape"
   xmlns:sodipodi="http://sodipodi.sourceforge.net/DTD/sodipodi-0.dtd"
   xmlns="http://www.w3.org/2000/svg"
   xmlns:svg="http://www.w3.org/2000/svg">
  <sodipodi:namedview
     id="namedview7265"
     pagecolor="#ffffff"
     bordercolor="#999999"
     borderopacity="1"
     inkscape:showpageshadow="0"
     inkscape:pageopacity="0"
     inkscape:pagecheckerboard="0"
     inkscape:deskcolor="#d1d1d1"
     inkscape:document-units="px"
     showgrid="false"
     showguides="false"
     inkscape:zoom="1.4770342"
     inkscape:cx="145.56196"
     inkscape:cy="230.86804"
     inkscape:window-width="1920"
     inkscape:window-height="1009"
     inkscape:window-x="-8"
     inkscape:window-y="-8"
     inkscape:window-maximized="1"
     inkscape:current-layer="layer1" />
  <defs
     id="defs7260">
    <clipPath
       id="0a576f4345">
      <path
         d="M 130,285 H 343 V 642.55859 H 130 Z m 0,0"
         clip-rule="nonzero"
         id="path6727" />
    </clipPath>
    <clipPath
       id="1d4e2efa15">
      <path
         d="M 51,421 H 265 V 642.55859 H 51 Z m 0,0"
         clip-rule="nonzero"
         id="path6730" />
    </clipPath>
    <clipPath
       id="07a0ffc47b">
      <path
         d="M 365,217 H 538.60156 V 506.54297 H 365 Z m 0,0"
         clip-rule="nonzero"
         id="path6733" />
    </clipPath>
  </defs>
  <g
     inkscape:label="Camada 1"
     inkscape:groupmode="layer"
     id="layer1"
     transform="translate(1.695679,-3.0084285)">
    <path
       fill="#005260"
       d="m 125.56055,101.91841 13.8227,24.02046 -55.278436,-0.01 -13.821331,-24.01084 h 55.277067"
       fill-opacity="1"
       fill-rule="nonzero"
       id="path6738"
       style="stroke-width:0.352311" />
    <path
       fill="#100f0d"
       d="m 85.782421,123.02818 48.581779,0.01 -10.47989,-18.21834 -48.591403,-0.01 z m 53.600829,5.80075 H 84.104814 c -1.03354,0 -1.996889,-0.5615 -2.508843,-1.45466 L 67.77464,103.36344 c -0.52296,-0.9028 -0.511951,-2.00653 0,-2.89969 0.521586,-0.894544 1.475303,-1.446404 2.508843,-1.446404 h 55.277067 c 1.03353,0 1.98725,0.56287 2.51021,1.456034 l 13.82133,24.02047 c 0.51196,0.89316 0.51196,1.99689 0,2.89005 -0.52158,0.89316 -1.4753,1.44503 -2.50884,1.44503"
       fill-opacity="1"
       fill-rule="nonzero"
       id="path6740"
       style="stroke-width:0.352311" />
    <path
       fill="#25ce7b"
       d="m 70.283483,101.91841 13.821331,24.01083 27.634406,-0.011 -27.634406,48.02028 -41.454362,-72.0201 27.633031,-48.020294 13.821331,24.02047 -13.821331,23.999824"
       fill-opacity="1"
       fill-rule="nonzero"
       id="path6742"
       style="stroke-width:0.352311" />
    <g
       clip-path="url(#0a576f4345)"
       id="g6746"
       transform="matrix(0.35231114,0,0,0.35231114,-6.0620665,-49.540976)">
      <path
         fill="#100f0d"
         d="m 147.75391,429.90234 108.17578,187.92578 64.21875,-111.57031 -64.21875,0.0274 c -2.9336,0 -5.66797,-1.59375 -7.1211,-4.12891 l -39.23047,-68.15234 c -1.48437,-2.53516 -1.48437,-5.66797 0,-8.20313 l 36.86719,-64.01953 -29.74609,-51.68359 z m 108.17578,212.65625 c -2.9336,0 -5.66797,-1.5664 -7.1211,-4.13281 L 131.14062,434.00391 c -1.45312,-2.53516 -1.45312,-5.64063 0,-8.20313 l 78.4375,-136.27344 c 2.9336,-5.125 11.3086,-5.125 14.2461,-0.0273 l 39.23047,68.17969 c 1.48047,2.53515 1.48047,5.66797 0,8.20312 l -36.86719,64.01953 34.50391,59.91797 h 73.67578 c 2.93359,0 5.64062,1.53906 7.12109,4.10156 1.45313,2.53516 1.45313,5.66797 0,8.20704 l -78.43359,136.29687 c -1.45313,2.53516 -4.1875,4.13281 -7.125,4.13281"
         fill-opacity="1"
         fill-rule="nonzero"
         id="path6744" />
    </g>
    <path
       fill="#d2fadf"
       d="m 70.283483,53.898126 -27.633031,48.020284 -27.623394,0.01 27.623394,-48.018914 27.633031,-0.011"
       fill-opacity="1"
       fill-rule="nonzero"
       id="path6748"
       style="stroke-width:0.352311" />
    <path
       fill="#100f0d"
       d="M 44.326685,56.810196 20.035106,99.028356 H 40.974222 L 65.275433,56.799186 Z M 15.027058,104.82911 c -1.034914,0 -1.987255,-0.55186 -2.510217,-1.44503 -0.521586,-0.9028 -0.521586,-2.0079 -0.0096,-2.90106 L 40.140267,52.462726 c 0.522963,-0.89316 1.47668,-1.45465 2.519852,-1.45465 h 27.623396 c 1.033536,0 1.987253,0.55186 2.510217,1.44502 0.51195,0.89317 0.521586,1.99826 0,2.89143 L 45.159294,103.36344 c -0.511953,0.90417 -1.46567,1.45603 -2.508842,1.45603 l -27.623394,0.01"
       fill-opacity="1"
       fill-rule="nonzero"
       id="path6750"
       style="stroke-width:0.352311" />
    <path
       fill="#005260"
       d="m 42.650452,101.91841 41.454362,72.02011 -27.633031,0.01 -41.444725,-72.0201 27.623394,-0.01"
       fill-opacity="1"
       fill-rule="nonzero"
       id="path6752"
       style="stroke-width:0.352311" />
    <g
       clip-path="url(#1d4e2efa15)"
       id="g6756"
       transform="matrix(0.35231114,0,0,0.35231114,-6.0620665,-49.540976)">
      <path
         fill="#100f0d"
         d="M 74.074219,438.13672 182.25391,626.11719 h 59.46093 L 133.50781,438.13672 Z M 177.49609,642.55859 c -2.93359,0 -5.66797,-1.5664 -7.12109,-4.10156 L 52.734375,434.03516 c -1.480469,-2.53516 -1.480469,-5.67188 0,-8.23438 1.453125,-2.53516 4.1875,-4.10156 7.125,-4.10156 h 78.406245 c 2.9336,0 5.66797,1.5664 7.1211,4.10156 l 117.66797,204.42188 c 1.48047,2.53515 1.45312,5.66796 0,8.20312 -1.48047,2.56641 -4.1875,4.13281 -7.125,4.13281 h -78.4336"
         fill-opacity="1"
         fill-rule="nonzero"
         id="path6754" />
    </g>
    <path
       fill="#25ce7b"
       d="m 167.01628,29.898309 13.8117,24.020457 -41.44473,72.020104 -13.8227,-24.02046 41.45573,-72.020101"
       fill-opacity="1"
       fill-rule="nonzero"
       id="path6758"
       style="stroke-width:0.352311" />
    <g
       clip-path="url(#07a0ffc47b)"
       id="g6762"
       transform="matrix(0.35231114,0,0,0.35231114,-6.0620665,-49.540976)">
      <path
         fill="#100f0d"
         d="m 383.08594,429.90234 29.74609,51.6836 108.14844,-187.92578 -29.71485,-51.6836 z m 29.74609,76.38282 c -2.96484,0 -5.67187,-1.56641 -7.125,-4.10157 l -39.23047,-68.17968 c -1.48047,-2.53516 -1.48047,-5.66797 0,-8.20313 L 484.11328,221.37891 c 2.93359,-5.10157 11.33984,-5.10157 14.27344,0 l 39.20312,68.17968 c 1.48438,2.53516 1.48438,5.64063 0,8.20313 L 419.95312,502.18359 c -1.48046,2.53516 -4.1875,4.10157 -7.12109,4.10157"
         fill-opacity="1"
         fill-rule="nonzero"
         id="path6760" />
    </g>
    <path
       fill="#25ce7b"
       d="M 97.92752,5.9094885 125.56055,53.909136 111.73922,77.908956 84.104814,29.909319 H 1.2043508 L 15.027058,5.9094885 H 97.92752"
       fill-opacity="1"
       fill-rule="nonzero"
       id="path6764"
       style="stroke-width:0.352311" />
    <path
       fill="#100f0d"
       d="m 84.104814,27.008249 c 1.034914,0 1.998263,0.55187 2.510217,1.44503 L 111.73922,72.097196 122.20808,53.909136 96.25129,8.7995485 H 16.703289 L 6.2137748,27.008249 Z m 27.634406,53.801767 c -1.03354,0 -1.99827,-0.56287 -2.51986,-1.45604 L 82.428581,32.799369 H 1.2043508 c -1.0335379,0 -1.99688868,-0.55186 -2.5088408,-1.44503 -0.5215854,-0.89316 -0.5215854,-1.99826 0,-2.89143 L 12.516841,4.4630985 c 0.511952,-0.9028 1.475303,-1.45467 2.510217,-1.45467 H 97.92752 c 1.03354,0 1.996884,0.55187 2.50884,1.45467 l 27.6344,47.9996275 c 0.51195,0.89455 0.51195,1.99827 0,2.89143 l -13.82271,23.99982 c -0.52158,0.89317 -1.4753,1.45604 -2.50883,1.45604"
       fill-opacity="1"
       fill-rule="nonzero"
       id="path6766"
       style="stroke-width:0.352311" />
    <path
       fill="#005260"
       d="m 84.104814,29.909319 27.634406,47.999637 -27.634406,0.01 -13.821331,-24.02047 -27.633031,0.011 L 28.838756,77.908956 1.2043508,29.909319 H 84.104814"
       fill-opacity="1"
       fill-rule="nonzero"
       id="path6768"
       style="stroke-width:0.352311" />
    <path
       fill="#100f0d"
       d="m 70.283483,51.008076 c 1.033536,0 1.998263,0.55186 2.510217,1.44502 l 12.988721,22.56443 H 106.72979 L 82.428581,32.799369 H 6.2137748 l 22.6249812,39.307457 11.301479,-19.6441 c 0.522963,-0.89316 1.47668,-1.45465 2.519852,-1.45465 z m 13.821331,29.80194 c -1.03354,0 -1.996889,-0.55324 -2.508843,-1.4464 l -12.988718,-22.56443 -24.280568,0.011 -12.988722,22.54379 c -0.511951,0.90279 -1.465671,1.45603 -2.499207,1.45603 -1.044548,0 -1.998265,-0.55324 -2.510217,-1.45603 L -1.30449,31.354339 c -0.5215854,-0.90417 -0.5215854,-2.0079 0,-2.90106 0.52158572,-0.89316 1.4753029,-1.44503 2.5088408,-1.44503 H 84.104814 c 1.034914,0 1.998263,0.55187 2.510217,1.44503 l 27.633019,48.009277 c 0.51196,0.89453 0.51196,1.99826 0,2.90106 -0.52158,0.89316 -1.4753,1.4464 -2.50883,1.4464 H 84.104814"
       fill-opacity="1"
       fill-rule="nonzero"
       id="path6770"
       style="stroke-width:0.352311" />
    <path
       fill="#d2fadf"
       d="M 167.01628,29.898309 125.56055,101.91841 H 70.283483 l 13.821331,-23.999824 27.634406,-0.01 13.82133,-23.99982 -13.82133,-24.010827 h 55.27706"
       fill-opacity="1"
       fill-rule="nonzero"
       id="path6772"
       style="stroke-width:0.352311" />
    <path
       fill="#100f0d"
       d="m 75.292907,99.017346 h 48.591403 l 38.11291,-66.217977 -45.24996,-0.01 11.3235,19.672997 c 0.51195,0.89454 0.51195,1.99826 0,2.89143 l -13.82271,23.99982 c -0.52158,0.89316 -1.4753,1.45603 -2.50883,1.45603 H 85.782421 Z m 50.267643,5.802124 -55.277067,-0.01 c -1.03354,0 -1.987257,-0.55186 -2.508843,-1.4464 -0.52296,-0.89316 -0.52296,-1.99689 0,-2.89005 L 81.595971,76.473196 c 0.511954,-0.90418 1.475303,-1.45604 2.508843,-1.45604 l 25.958166,-0.01 12.1451,-21.09876 L 109.229,31.343979 c -0.52159,-0.90418 -0.51196,-2.0079 0,-2.90107 0.51195,-0.89316 1.47668,-1.4464 2.51022,-1.4464 l 55.27706,0.011 c 1.03354,0 1.98726,0.55187 2.50884,1.44503 0.51195,0.89316 0.51195,1.99689 0,2.89143 l -41.45436,72.018751 c -0.52296,0.90417 -1.47668,1.45603 -2.51021,1.45603"
       fill-opacity="1"
       fill-rule="nonzero"
       id="path6774"
       style="stroke-width:0.352311" />
  </g>
</svg>
